<svg width="35" height="40" viewBox="0 0 35 40" fill="none" xmlns="http://www.w3.org/2000/svg">
<path d="M17.5034 36.0532C17.2136 36.0532 16.9298 36 16.6596 35.8953C14.9662 35.2383 11.7056 33.7639 8.89406 31.2696C5.31481 28.0942 3.49994 24.2988 3.49994 19.9887V9.24767C3.49994 8.4188 3.94537 7.64537 4.66233 7.22942C5.72524 6.6128 6.61292 5.72504 7.22954 4.66221C7.64549 3.94525 8.41892 3.49982 9.24779 3.49982H25.752C26.581 3.49982 27.3543 3.94525 27.7703 4.66221C28.3869 5.72504 29.2746 6.6128 30.3375 7.22942C31.0545 7.64545 31.4999 8.4188 31.4999 9.24767V19.9887C31.4999 24.3087 29.6909 28.1058 26.123 31.2743C23.311 33.7716 20.0412 35.2426 18.3423 35.8971C18.0735 36.0007 17.7914 36.0532 17.5034 36.0532Z" fill="url(#paint0_linear_17_345)"/>
<path d="M33.8333 4.66667C31.9034 4.66667 30.3333 3.09657 30.3333 1.16667C30.3333 0.522356 29.811 0 29.1667 0H5.83333C5.18902 0 4.66667 0.522356 4.66667 1.16667C4.66667 3.09657 3.09657 4.66667 1.16667 4.66667C0.522356 4.66667 0 5.18902 0 5.83333V19.9889C0 23.4077 0.920033 26.5869 2.73451 29.4381C4.17006 31.6939 6.16202 33.7406 8.65527 35.5215C12.4074 38.2017 16.8609 39.8222 17.5 39.8222C18.1059 39.8222 22.5383 38.2405 26.3448 35.5216C28.8381 33.7407 30.83 31.694 32.2656 29.4381C34.08 26.5869 35 23.4077 35 19.9889V5.83333C35 5.18902 34.4776 4.66667 33.8333 4.66667ZM30.3333 19.9889C30.3333 23.9611 28.6561 27.4646 25.3483 30.4022C22.6739 32.7773 19.548 34.1825 17.9229 34.8087C17.6521 34.913 17.3522 34.9127 17.0815 34.8077C15.4611 34.1791 12.3435 32.7703 9.6684 30.3971C6.34947 27.4527 4.66667 23.9509 4.66667 19.9889V9.24786C4.66667 8.8319 4.8881 8.44744 5.2479 8.23877C6.48612 7.52033 7.52041 6.48612 8.23877 5.2479C8.44744 4.8881 8.83198 4.66667 9.24786 4.66667H25.7521C26.168 4.66667 26.5525 4.8881 26.7612 5.2479C27.4796 6.48612 28.5139 7.52041 29.7521 8.23877C30.1118 8.44752 30.3333 8.83198 30.3333 9.24786V19.9889ZM17.5 10.6556C12.9969 10.6556 9.33333 14.3191 9.33333 18.8222C9.33333 23.3253 12.9969 26.9889 17.5 26.9889C22.0031 26.9889 25.6667 23.3253 25.6667 18.8222C25.6667 14.3191 22.0031 10.6556 17.5 10.6556ZM20.8916 17.8972L17.3916 21.3972C16.936 21.8528 16.1973 21.8528 15.7417 21.3972L13.9917 19.6472C13.5361 19.1916 13.5361 18.4529 13.9917 17.9973C14.4472 17.5417 15.186 17.5417 15.6416 17.9973L16.5667 18.9223L19.2418 16.2473C19.6973 15.7917 20.436 15.7917 20.8917 16.2473C21.3472 16.7029 21.3472 17.4416 20.8916 17.8972Z" fill="url(#paint1_linear_17_345)"/>
<defs>
<linearGradient id="paint0_linear_17_345" x1="17.4999" y1="36.0532" x2="17.4999" y2="3.49982" gradientUnits="userSpaceOnUse">
<stop stop-color="#C3FFE8"/>
<stop offset="0.9973" stop-color="#F0FFF4"/>
</linearGradient>
<linearGradient id="paint1_linear_17_345" x1="17.5" y1="39.8222" x2="17.5" y2="0" gradientUnits="userSpaceOnUse">
<stop stop-color="#00B59C"/>
<stop offset="1" stop-color="#9CFFAC"/>
</linearGradient>
</defs>
</svg>
