<svg width="35" height="46" viewBox="0 0 35 46" fill="none" xmlns="http://www.w3.org/2000/svg">
<path d="M33.6538 7.32494C26.2027 7.32494 18.4808 0.418183 18.4043 0.34899C17.8911 -0.11633 17.1088 -0.11633 16.5957 0.34899C16.5187 0.418721 8.81713 7.32494 1.34615 7.32494C0.602718 7.32494 0 7.92766 0 8.67109V24.7925C0 37.8523 9.71349 43.0709 17.0199 45.8602C17.1745 45.9193 17.3372 45.9487 17.5 45.9487C17.6628 45.9487 17.8255 45.9192 17.9801 45.8602C28.2247 41.9492 35 35.8485 35 24.7925V8.67109C35 7.92766 34.3973 7.32494 33.6538 7.32494Z" fill="url(#paint0_linear_17_324)"/>
<path d="M17.5 13.5513C12.3042 13.5513 8.07697 17.7785 8.07697 22.9744C8.07697 28.1703 12.3042 32.3975 17.5 32.3975C22.6959 32.3975 26.9231 28.1703 26.9231 22.9744C26.9231 17.7785 22.6959 13.5513 17.5 13.5513ZM21.1442 22.5801L17.1057 26.6185C16.8429 26.8814 16.4984 27.0129 16.1539 27.0129C15.8094 27.0129 15.4648 26.8815 15.2021 26.6185L13.8559 25.2724C13.3302 24.7467 13.3302 23.8944 13.8559 23.3687C14.3815 22.8429 15.2339 22.8429 15.7596 23.3687L16.154 23.7629L19.2406 20.6763C19.7662 20.1506 20.6186 20.1506 21.1443 20.6763C21.67 21.2021 21.67 22.0544 21.1442 22.5801Z" fill="url(#paint1_linear_17_324)"/>
<defs>
<linearGradient id="paint0_linear_17_324" x1="17.5" y1="45.9487" x2="17.5" y2="-2.19101e-05" gradientUnits="userSpaceOnUse">
<stop stop-color="#00B59C"/>
<stop offset="1" stop-color="#9CFFAC"/>
</linearGradient>
<linearGradient id="paint1_linear_17_324" x1="17.5" y1="32.3975" x2="17.5" y2="13.5513" gradientUnits="userSpaceOnUse">
<stop stop-color="#C3FFE8"/>
<stop offset="0.9973" stop-color="#F0FFF4"/>
</linearGradient>
</defs>
</svg>
