<svg width="46" height="51" viewBox="0 0 46 51" fill="none" xmlns="http://www.w3.org/2000/svg">
<path d="M7.11982 37.4793H5.19816C5.08756 37.3134 5.01844 37.106 5.01844 36.8433C5.01844 36.2074 5.26728 35.8756 5.75115 35.8756C6.12443 35.8756 6.34562 36.083 6.41475 36.4839L7.14747 36.4286C6.98157 35.6544 6.51152 35.2811 5.73733 35.2811C4.81106 35.2811 4.28572 35.9032 4.28572 36.8572C4.28572 37.0784 4.32719 37.2996 4.39632 37.4793H3.67742V38.1982H7.10599V37.4793H7.11982Z" fill="white"/>
<path d="M14.4194 34.2443H13.3825V35.4885H14.4194V34.2443Z" fill="white"/>
<path d="M16.3272 34.2443H15.2903V35.4885H16.3272V34.2443Z" fill="white"/>
<path d="M21.1244 34.2443H20.0876V35.4885H21.1244V34.2443Z" fill="white"/>
<path d="M41.1982 36.7189C39.6083 36.7189 38.4194 37.2305 37.5899 38.2673C38.0461 38.7235 38.3364 39.0139 38.4747 39.1659C39.0553 38.1982 39.9677 37.7282 41.212 37.7282C43.4931 37.7282 44.7926 39.1383 44.7926 41.5991C44.7926 41.765 44.7788 41.9309 44.765 42.1245H36.2627H35.917H34.341V41.4609C34.341 38.1844 33.1797 36.5254 30.8433 36.5254C29.1982 36.5254 27.3594 37.7835 26.2811 39.9125C26.2949 39.8157 26.2949 39.7189 26.2949 39.6222V37.2305H25.2857V39.8572C25.2857 41.3779 24.7742 42.1245 23.7373 42.1245H22.7143H22.3825H20.8203C21.0138 41.7374 21.0968 41.212 21.0968 40.5761V36.5254H20.0737V40.1199C20.0737 40.7835 20.0046 41.2535 19.8525 41.53C19.6452 41.9171 19.2442 42.1245 18.6083 42.1245H17.9585V42.1106H16.0645C16.2581 41.7235 16.341 41.1982 16.341 40.5623V36.5116H15.318V40.106C15.318 40.7696 15.2488 41.2397 15.0968 41.5162C14.8894 41.9033 14.4885 42.1106 13.8525 42.1106H13.2166V42.0968H10.5069C10.7005 41.7097 10.7834 41.1844 10.7834 40.5484V33.6913H9.76037V40.0922C9.76037 41.6682 9.3871 42.083 8.32258 42.083H4.10599C2.05991 42.083 1.02304 41.0323 1.02304 38.8618V36.5116H0V38.9033C0 41.7235 1.39631 43.1337 4.18894 43.1337H12.9263H13.2166H17.6958H17.9447H22.3825H22.7143H35.9032H36.2488H45.9819V41.6682C46.0092 38.6406 44.1014 36.7189 41.1982 36.7189ZM33.2627 42.1383H26.0599C26.7373 39.6913 28.9217 37.4517 30.7742 37.4517C32.3779 37.4517 33.3041 38.9724 33.3041 41.2258C33.3041 41.5023 33.2903 41.8203 33.2627 42.1383Z" fill="white"/>
<path d="M7.11982 46.576V48.4286H9.4424V46.576H9.89862V50.8479H9.4424V48.8295H7.11982V50.8479H6.6636V46.576H7.11982Z" fill="white"/>
<path d="M12.3456 46.576L13.9078 50.8479H13.424L12.9539 49.5346H11.1152L10.6452 50.8479H10.1613L11.7373 46.576H12.3456ZM12.0277 47.0046L11.2673 49.1475H12.8019L12.0277 47.0046Z" fill="white"/>
<path d="M14.7788 49.5207C14.7926 49.6728 14.8203 49.811 14.8894 49.9493C14.9447 50.0737 15.0277 50.1843 15.1244 50.2811C15.2212 50.3779 15.3456 50.447 15.4701 50.5023C15.6083 50.5576 15.7465 50.5852 15.9124 50.5852C16.0507 50.5852 16.1889 50.5714 16.3134 50.5438C16.4516 50.5161 16.5622 50.4608 16.659 50.3917C16.7558 50.3226 16.8387 50.2396 16.894 50.129C16.9493 50.0184 16.977 49.894 16.977 49.7281C16.977 49.6037 16.9493 49.4931 16.8802 49.4101C16.8111 49.3272 16.7281 49.2442 16.6313 49.1751C16.5207 49.106 16.4101 49.0507 16.2719 49.0092C16.1336 48.9677 16.0092 48.9124 15.871 48.871C15.6912 48.8157 15.5254 48.7604 15.3595 48.7051C15.1936 48.6359 15.0277 48.5668 14.9032 48.47C14.765 48.3733 14.6544 48.2488 14.5714 48.1106C14.4885 47.9723 14.447 47.7926 14.447 47.5714C14.447 47.3917 14.4885 47.2396 14.5576 47.1014C14.6267 46.9631 14.7235 46.8525 14.8479 46.7557C14.9724 46.659 15.1244 46.5898 15.2903 46.5484C15.4701 46.5069 15.6498 46.4792 15.871 46.4792C16.1475 46.4792 16.3825 46.5207 16.5622 46.6037C16.7419 46.6866 16.894 46.7834 17.0046 46.9078C17.1152 47.0322 17.1982 47.1705 17.2535 47.3226C17.3088 47.4746 17.3364 47.6129 17.3364 47.7511H16.8525C16.8387 47.6129 16.8111 47.4885 16.7558 47.3779C16.7005 47.2673 16.6313 47.1705 16.5346 47.1014C16.4378 47.0322 16.341 46.9769 16.2304 46.9355C16.1198 46.894 15.9954 46.8802 15.8571 46.8802C15.7327 46.8802 15.6221 46.894 15.5115 46.9216C15.4009 46.9493 15.2903 46.9908 15.2074 47.0461C15.1106 47.1014 15.0415 47.1705 14.9862 47.2534C14.9309 47.3364 14.9032 47.447 14.9032 47.5714C14.9032 47.7097 14.9309 47.8203 15 47.9032C15.0691 48 15.1521 48.0691 15.2489 48.1382C15.3595 48.2074 15.4701 48.2627 15.6083 48.3041C15.7465 48.3456 15.8848 48.4009 16.023 48.4424C16.2028 48.4977 16.3687 48.553 16.5346 48.6221C16.7005 48.6774 16.8525 48.7604 16.9908 48.8571C17.129 48.9539 17.2396 49.0645 17.3226 49.2028C17.4055 49.341 17.447 49.5207 17.447 49.7281C17.447 49.9355 17.4055 50.1152 17.3364 50.2811C17.2535 50.4332 17.1567 50.5714 17.0184 50.682C16.8802 50.7926 16.7143 50.8756 16.5346 50.917C16.341 50.9723 16.1475 51 15.9263 51C15.7189 51 15.5254 50.9723 15.3456 50.9032C15.1659 50.8341 14.9862 50.7373 14.8341 50.6129C14.682 50.4885 14.5714 50.3364 14.4747 50.1567C14.3779 49.9769 14.3364 49.7696 14.3364 49.5484H14.7788V49.5207Z" fill="white"/>
<path d="M18.553 49.5207C18.5668 49.6728 18.5945 49.811 18.6636 49.9493C18.7189 50.0737 18.8018 50.1843 18.8986 50.2811C18.9954 50.3779 19.1198 50.447 19.2442 50.5023C19.3825 50.5576 19.5207 50.5852 19.6866 50.5852C19.8249 50.5852 19.9631 50.5714 20.0876 50.5438C20.2258 50.5161 20.3364 50.4608 20.4332 50.3917C20.53 50.3226 20.6129 50.2396 20.6682 50.129C20.7235 50.0184 20.7512 49.894 20.7512 49.7281C20.7512 49.6037 20.7235 49.4931 20.6544 49.4101C20.5853 49.3272 20.5023 49.2442 20.4055 49.1751C20.2949 49.106 20.1843 49.0507 20.0461 49.0092C19.9078 48.9677 19.7834 48.9124 19.6452 48.871C19.4654 48.8157 19.2995 48.7604 19.1336 48.7051C18.9677 48.6359 18.8018 48.5668 18.6774 48.47C18.5392 48.3733 18.4286 48.2488 18.3456 48.1106C18.2627 47.9723 18.2212 47.7926 18.2212 47.5714C18.2212 47.3917 18.2627 47.2396 18.3318 47.1014C18.4009 46.9631 18.4977 46.8525 18.6221 46.7557C18.7465 46.659 18.8986 46.5898 19.0645 46.5484C19.2304 46.5069 19.424 46.4792 19.6452 46.4792C19.9217 46.4792 20.1567 46.5207 20.3364 46.6037C20.5161 46.6866 20.6682 46.7834 20.7788 46.9078C20.8894 47.0322 20.9724 47.1705 21.0277 47.3226C21.083 47.4746 21.1106 47.6129 21.1106 47.7511H20.6406C20.6267 47.6129 20.5991 47.4885 20.5438 47.3779C20.4885 47.2673 20.4194 47.1705 20.3226 47.1014C20.2258 47.0322 20.129 46.9769 20.0184 46.9355C19.9078 46.894 19.7834 46.8802 19.6452 46.8802C19.5207 46.8802 19.4101 46.894 19.2995 46.9216C19.1889 46.9493 19.0783 46.9908 18.9954 47.0461C18.8986 47.1014 18.8295 47.1705 18.7742 47.2534C18.7189 47.3364 18.6912 47.447 18.6912 47.5714C18.6912 47.7097 18.7189 47.8203 18.788 47.9032C18.8571 48 18.9401 48.0691 19.0369 48.1382C19.1475 48.2074 19.2581 48.2627 19.3963 48.3041C19.5346 48.3456 19.6728 48.4009 19.8111 48.4424C19.9908 48.4977 20.1567 48.553 20.3226 48.6221C20.4885 48.6774 20.6406 48.7604 20.7788 48.8571C20.9171 48.9539 21.0277 49.0645 21.1106 49.2028C21.1936 49.341 21.235 49.5207 21.235 49.7281C21.235 49.9355 21.1936 50.1152 21.1244 50.2811C21.0415 50.4332 20.9447 50.5714 20.8065 50.682C20.6682 50.7926 20.5023 50.8756 20.3226 50.917C20.129 50.9723 19.9355 51 19.7143 51C19.5069 51 19.3134 50.9723 19.1336 50.9032C18.9401 50.8341 18.7742 50.7373 18.6221 50.6129C18.4701 50.4885 18.3595 50.3364 18.2627 50.1567C18.1659 49.9769 18.1244 49.7696 18.1244 49.5484H18.553V49.5207Z" fill="white"/>
<path d="M23.682 46.576L25.2442 50.8479H24.7604L24.2903 49.5346H22.4516L21.9816 50.8479H21.4977L23.0737 46.576H23.682ZM23.3641 47.0046L22.6037 49.1475H24.1383L23.3641 47.0046Z" fill="white"/>
<path d="M26.2535 46.576L28.424 50.2673V46.576H28.8802V50.8479H28.2719L26.1014 47.1567V50.8479H25.6452V46.576H26.2535Z" fill="white"/>
<path d="M32.8065 46.576V46.9908H31.3963V50.8479H30.9401V46.9908H29.53V46.576H32.8065Z" fill="white"/>
<path d="M33.8986 46.576V49.4516C33.8986 49.6313 33.9263 49.7834 33.9954 49.9217C34.0645 50.0599 34.1475 50.1843 34.2442 50.2673C34.341 50.3641 34.4654 50.4332 34.5899 50.4885C34.7143 50.5438 34.8525 50.5714 34.977 50.5714C35.1152 50.5714 35.2535 50.5438 35.3917 50.5023C35.53 50.4608 35.6544 50.3917 35.765 50.2949C35.8756 50.1982 35.9724 50.0876 36.0277 49.9493C36.0968 49.8111 36.1244 49.6452 36.1244 49.4655V46.576H36.5806V49.4378C36.5806 49.6866 36.5392 49.9078 36.4424 50.1014C36.3456 50.2949 36.2212 50.447 36.0691 50.5853C35.9171 50.7097 35.7373 50.8203 35.5438 50.8756C35.3502 50.9447 35.1567 50.9724 34.9631 50.9724C34.7834 50.9724 34.5899 50.9447 34.4101 50.8756C34.2304 50.8065 34.0645 50.7097 33.9124 50.5853C33.7604 50.4608 33.6498 50.2949 33.553 50.1014C33.4562 49.9078 33.4147 49.6866 33.4147 49.424V46.576H33.8986Z" fill="white"/>
<path d="M37.7143 46.576V48.7604L39.8986 46.576H40.4931L38.8065 48.2627L40.6037 50.8618H40.0231L38.4885 48.5945L37.7143 49.3549V50.8618H37.2581V46.5899H37.7143V46.576Z" fill="white"/>
<path d="M23.1705 17.9862H32.3226L32.8341 17.212H22.659L23.1705 17.9862Z" fill="white"/>
<path d="M21.8018 15.6774L22.5622 16.894H32.9309L33.6912 15.6774H21.8018Z" fill="white"/>
<path d="M23.1982 19.9493H21.9124V20.4885H23.1982V19.9493Z" fill="white"/>
<path d="M23.1982 22.2166H21.9124V22.7557H23.1982V22.2166Z" fill="white"/>
<path d="M23.1982 24.7327H21.9124V25.2718H23.1982V24.7327Z" fill="white"/>
<path d="M33.5806 19.9493H32.2949V20.4885H33.5806V19.9493Z" fill="white"/>
<path d="M33.5806 22.2166H32.2949V22.7557H33.5806V22.2166Z" fill="white"/>
<path d="M13.6313 19.0368H19.8387L20.1705 18.5115H13.2995L13.6313 19.0368Z" fill="white"/>
<path d="M12.7189 17.4746L13.2166 18.3041H20.2535L20.7512 17.4746H12.7189Z" fill="white"/>
<path d="M13.659 20.5299H12.788V21.0553H13.659V20.5299Z" fill="white"/>
<path d="M20.682 20.5299H19.8111V21.0553H20.682V20.5299Z" fill="white"/>
<path d="M20.682 23.4885H19.8111V24.0139H20.682V23.4885Z" fill="white"/>
<path d="M20.682 26.447H19.8111V26.9724H20.682V26.447Z" fill="white"/>
<path d="M23.1705 7.06452C23.1014 7.13364 23.0323 7.20276 22.9631 7.27189C22.9078 7.20276 22.8387 7.11981 22.7972 7.03687C22.5346 6.59447 22.6037 6.02765 22.9493 5.65438C23.0876 5.51613 23.0876 5.3917 22.977 5.22581C23.0046 5.19816 23.0461 5.15668 23.0737 5.12903C23.1014 5.10138 23.1429 5.05991 23.1705 5.01843C23.2949 5.14286 23.3502 5.29493 23.3502 5.47465C23.3364 5.6129 23.2811 5.73733 23.1843 5.84793C22.8525 6.19355 22.8387 6.67742 23.1567 7.05069C23.1567 7.03687 23.1705 7.05069 23.1705 7.06452Z" fill="white"/>
<path d="M23.5853 6.64981C23.5161 6.71894 23.447 6.77424 23.3779 6.84336C23.2949 6.76041 23.2396 6.66364 23.2258 6.53921C23.1982 6.34566 23.2535 6.16594 23.3917 6.02769C23.7235 5.69589 23.7235 5.17055 23.4055 4.83875L23.3917 4.82493C23.4608 4.7558 23.53 4.68668 23.5991 4.61755C23.7235 4.74198 23.8203 4.89405 23.8756 5.05995C24.0138 5.50235 23.9171 5.90327 23.5991 6.23507C23.4885 6.37331 23.4885 6.49774 23.5853 6.64981Z" fill="white"/>
<path d="M12.9124 10.106C14.1875 10.106 15.2212 9.07237 15.2212 7.79728C15.2212 6.52219 14.1875 5.48853 12.9124 5.48853C11.6374 5.48853 10.6037 6.52219 10.6037 7.79728C10.6037 9.07237 11.6374 10.106 12.9124 10.106Z" fill="#EE1927"/>
<path d="M15.9954 6.40096C16.7436 6.40096 17.3502 5.79438 17.3502 5.04612C17.3502 4.29787 16.7436 3.69128 15.9954 3.69128C15.2471 3.69128 14.6405 4.29787 14.6405 5.04612C14.6405 5.79438 15.2471 6.40096 15.9954 6.40096Z" fill="#0E763D"/>
<path d="M10.9217 13.0645C11.6699 13.0645 12.2765 12.458 12.2765 11.7097C12.2765 10.9614 11.6699 10.3549 10.9217 10.3549C10.1734 10.3549 9.56682 10.9614 9.56682 11.7097C9.56682 12.458 10.1734 13.0645 10.9217 13.0645Z" fill="#0E763D"/>
<path d="M18.8157 4.53454C19.312 4.53454 19.7143 4.13221 19.7143 3.63592C19.7143 3.13963 19.312 2.7373 18.8157 2.7373C18.3194 2.7373 17.9171 3.13963 17.9171 3.63592C17.9171 4.13221 18.3194 4.53454 18.8157 4.53454Z" fill="white"/>
<path d="M10.1198 15.7189C10.639 15.7189 11.0599 15.298 11.0599 14.7788C11.0599 14.2596 10.639 13.8387 10.1198 13.8387C9.60062 13.8387 9.17973 14.2596 9.17973 14.7788C9.17973 15.298 9.60062 15.7189 10.1198 15.7189Z" fill="white"/>
<path d="M22.2719 1.45157L22.7005 1.88015C22.9078 1.82485 23.1152 1.7972 23.3364 1.7972C23.5714 1.7972 23.7926 1.83867 24 1.89397L24.4286 1.4654C24.0829 1.34097 23.7235 1.27185 23.3364 1.27185C22.9493 1.27185 22.6037 1.34097 22.2719 1.45157Z" fill="white"/>
<path d="M23.3226 0.691244C23.8617 0.691244 24.3733 0.815668 24.8295 1.03687L25.3272 0.525346C24.7327 0.193548 24.0553 0 23.3226 0C22.6037 0 21.9401 0.193548 21.3456 0.511521L21.8433 1.02304C22.2995 0.815668 22.7972 0.691244 23.3226 0.691244Z" fill="white"/>
<path d="M13.8249 24.7189C11.7097 22.4239 10.5207 19.5069 10.424 16.3824L9.87097 16.3963C9.98157 19.8801 11.4055 23.129 13.9078 25.5898C14.1014 25.7695 14.2811 25.9493 14.4885 26.129V26.046H15.4701V26.9032C15.7327 27.0829 15.9954 27.2626 16.2581 27.4285V26.046H17.2396V29.7788C17.5023 29.917 17.765 30.0276 18.0277 30.152V26.046H19.0092V29.4193C19.2304 29.4884 19.4516 29.5576 19.6728 29.6267V19.2995H13.8387V24.7189H13.8249ZM18.0138 20.5161C18.0138 20.2396 18.235 20.0322 18.4977 20.0322C18.7742 20.0322 18.9816 20.2534 18.9816 20.5161V21.0276H18V20.5161H18.0138ZM18.0138 21.3732H18.9954V25.6036H18.0138V21.3732ZM16.2442 20.5161C16.2442 20.2396 16.4654 20.0322 16.7281 20.0322C17.0046 20.0322 17.212 20.2534 17.212 20.5161V21.0276H16.2304V20.5161H16.2442ZM16.2442 21.3732H17.2258V25.6036H16.2442V21.3732ZM14.4885 20.5161C14.4885 20.2396 14.7097 20.0322 14.9724 20.0322C15.2489 20.0322 15.4562 20.2534 15.4562 20.5161V21.0276H14.4747V20.5161H14.4885ZM14.4885 21.3732H15.4701V25.6036H14.4885V21.3732Z" fill="white"/>
<path d="M23.3364 2.46082C22.2719 2.46082 21.2212 2.58524 20.2258 2.82026L20.3502 3.35943C20.5161 3.31796 20.682 3.29031 20.8479 3.26266C21.0829 3.33178 21.318 3.38708 21.5806 3.44238C21.5806 3.45621 21.5945 3.45621 21.5945 3.47003C21.6774 3.70506 21.7604 3.9539 21.8295 4.18893C21.8433 4.2304 21.8571 4.24423 21.9124 4.24423C22.8664 4.24423 23.8203 4.24423 24.788 4.24423C24.8295 4.24423 24.8433 4.2304 24.8571 4.18893C24.9401 3.94008 25.023 3.70506 25.0922 3.45621C25.0922 3.44238 25.106 3.42856 25.106 3.42856C25.3548 3.38708 25.6037 3.31796 25.8387 3.24883C31.7834 4.41012 36.2765 9.66358 36.2765 15.9401C36.2765 19.6037 34.7419 23.0599 32.0461 25.5069V18.3456H23.4332V30.8157C23.765 30.8157 24.0829 30.8018 24.4147 30.7742V24.1106H25.8525V29.1981C26.2535 29.129 26.6406 29.0322 27.0138 28.9216V24.1106H28.4654V29.3917C28.8664 29.2258 29.2535 29.0461 29.6267 28.8525V24.1244H31.0645V27.0138C31.3272 26.8341 31.576 26.6405 31.8111 26.447V26.4608C34.9908 23.8894 36.8157 20.0599 36.8157 15.9677C36.8295 8.51611 30.788 2.46082 23.3364 2.46082ZM22.0092 3.82948C21.9677 3.69123 21.9263 3.56681 21.871 3.41473C21.9263 3.41473 21.9816 3.41473 22.0369 3.41473C22.1475 3.41473 22.2442 3.41473 22.3548 3.41473C22.3687 3.41473 22.3963 3.42856 22.3963 3.44238C22.424 3.56681 22.4378 3.69123 22.4654 3.81565C22.3134 3.82948 22.1613 3.82948 22.0092 3.82948ZM23.212 3.82948C23.0599 3.82948 22.9078 3.82948 22.7419 3.82948C22.7143 3.69123 22.7005 3.56681 22.6728 3.41473C22.7558 3.41473 22.8387 3.41473 22.9217 3.41473C22.9355 3.41473 22.9631 3.42856 22.9631 3.45621C23.0046 3.53916 23.0737 3.60828 23.1567 3.64976C23.1843 3.66358 23.1982 3.69123 23.1982 3.71888C23.212 3.76035 23.212 3.788 23.212 3.82948ZM23.9447 3.82948C23.7926 3.82948 23.6406 3.82948 23.4885 3.82948C23.4885 3.81565 23.4885 3.80183 23.4885 3.788C23.4747 3.71888 23.4885 3.66358 23.5714 3.62211C23.6267 3.59446 23.682 3.51151 23.7235 3.45621C23.7373 3.42856 23.7512 3.41473 23.7926 3.41473C23.8617 3.41473 23.9447 3.41473 24.0276 3.41473C23.9862 3.55298 23.9723 3.69123 23.9447 3.82948ZM24.6774 3.81565C24.6774 3.82948 24.6498 3.82948 24.6498 3.82948C24.5115 3.82948 24.3733 3.82948 24.2212 3.82948C24.2488 3.69123 24.2627 3.56681 24.2903 3.44238C24.2903 3.42856 24.3041 3.41473 24.318 3.41473C24.4839 3.41473 24.6359 3.41473 24.8157 3.41473C24.7742 3.55298 24.7327 3.67741 24.6774 3.81565ZM23.6129 3.27648C23.6129 3.42856 23.5023 3.53916 23.3502 3.53916C23.1982 3.53916 23.0876 3.42856 23.0737 3.27648C23.0737 3.13823 23.1705 3.02764 23.3088 3.01381C23.3226 3.01381 23.3364 3.01381 23.3502 3.01381C23.3641 3.01381 23.3779 3.01381 23.3917 3.01381C23.5023 3.04146 23.6129 3.13823 23.6129 3.27648ZM25.8664 23.4746H24.4286V21.2074H25.8664V23.4746ZM25.8664 20.6958H24.4286V19.9355C24.4286 19.5345 24.7465 19.2166 25.1475 19.2166C25.5484 19.2166 25.8664 19.5345 25.8664 19.9355V20.6958ZM28.4654 23.4746H27.0276V21.2074H28.4654V23.4746ZM28.4654 20.6958H27.0276V19.9355C27.0276 19.5345 27.3456 19.2166 27.7465 19.2166C28.1475 19.2166 28.4654 19.5345 28.4654 19.9355V20.6958ZM31.0783 23.4746H29.6406V21.2074H31.0783V23.4746ZM31.0783 20.6958H29.6406V19.9355C29.6406 19.5345 29.9585 19.2166 30.3594 19.2166C30.7604 19.2166 31.0783 19.5345 31.0783 19.9355V20.6958Z" fill="white"/>
</svg>
